PathFileType	4	(X/Y/Z)	C:/Users/beibeiliu/ov580/test_trc\sequence.3_training_dense_right.trc
DataRate	CameraRate	NumFrames	NumMarkers	Units	OrigDataRate	OrigDataStartFrame	OrigNumFrames
120	120	18	19	mm	120	1	72
Frame#	Time	ThumbCMC			ThumbMCP			ThumbIP			ThumbTip			IndexMCP			IndexPIP			IndexTip			MiddleMCP			MiddlePIP			MiddleTip			RingMCP			RingPIP			RingTip			PinkyMCP			PinkyPIP			PinkyTip			BackHand1			BackHand2			BackHand3	
		X0	Y0	Z0	X1	Y1	Z1	X2	Y2	Z2	X3	Y3	Z3	X4	Y4	Z4	X5	Y5	Z5	X6	Y6	Z6	X7	Y7	Z7	X8	Y8	Z8	X9	Y9	Z9	X10	Y10	Z10	X11	Y11	Z11	X12	Y12	Z12	X13	Y13	Z13	X14	Y14	Z14	X15	Y15	Z15	X16	Y16	Z16	X17	Y17	Z17	X18	Y18	Z18	
0	0	62.3048	30.3329	95.9077	35.0425	30.1169	76.035	21.7399	9.97568	58.3405	18.0867	-13.4206	50.0331	44.175	-19.0391	37.3198	28.0335	-39.3485	26.146	17.8047	-53.402	14.3068	56.1073	-37.5956	36.7159	38.6225	-52.0241	25.875	25.2153	-73.5874	11.8352	66.0758	-48.1678	44.4436	52.3729	-64.8498	32.1546	39.4615	-83.8579	17.6266	78.6151	-53.8274	58.8234	66.8718	-69.471	46.4902	58.0697	-84.7452	32.2148	98.7245	-15.0675	72.8314	112.462	4.75803	92.9621	85.7941	17.7492	77.0025	
1	0.00833333	69.8524	41.1712	91.7729	50.1161	46.1751	77.15	32.2503	30.6913	55.1071	19.7964	14.3569	44.8551	42.7441	-0.689662	36.8761	22.7584	-13.3048	22.7814	9.29597	-31.375	11.1128	47.903	-17.8933	36.2552	25.5254	-31.4994	22.5253	9.60501	-47.1211	8.00245	52.623	-32.9359	42.29	41	-49.0526	34.207	20.1282	-58.8449	16.6515	65.3773	-42.6082	59.3802	49.095	-54.7484	45.0104	33.3819	-62.7571	29.2954	94.8737	-11.8251	73.8699	112.285	2.43119	94.9283	90.575	22.5816	74.8692	
2	0.0166667	88.5327	55.5197	93.2426	69.8883	61.9995	71.1719	51.0263	55.849	48.5225	36.6736	39.1268	38.99	50.9407	20.9188	31.5299	31.5291	17.7423	18.2937	13.8756	3.30066	5.36159	46.7683	2.19118	28.2554	26.7804	-2.39653	15.9544	6.25482	-13.5772	-0.67392	50.6041	-15.4579	39.1361	33.5318	-20.4839	29.048	12.7853	-28.4851	12.1129	57.3613	-25.6329	53.3199	40.2696	-32.5147	42.9317	26.5963	-36.6303	26.057	94.2283	-6.34172	71.0559	113.536	-0.60654	92.3837	102.564	27.1841	74.6506	
3	0.025	106.902	62.0617	87.3734	95.0537	75.591	67.0261	75.9804	69.631	41.2121	57.7057	58.9228	28.845	71.5877	39.7547	24.4964	48.6315	38.4616	5.90069	30.8352	28.688	-7.16869	62.0873	16.2127	22.341	40.6161	16.6808	5.73893	21.2943	12.7924	-10.9034	57.9889	3.63913	29.4495	39.1567	0.0813834	16.4485	20.9486	-0.124803	0.0964452	60.6473	-9.36262	47.3071	44.6334	-10.9503	35.7314	28.1141	-14.3615	13.0713	100.875	2.61548	66.5307	116.504	3.00837	94.5233	113.655	33.7749	69.7586	
4	0.0333333	126.52	61.3292	84.6149	117.9	74.4023	64.3454	104.035	74.0183	36.9172	84.5319	63.8817	21.8686	94.5509	41.3227	16.5704	80.3244	45.5595	-1.21835	60.2807	39.2505	-17.6024	87.566	25.3864	17.3627	65.9467	27.4312	-4.38053	51.0812	26.9304	-23.4827	77.6002	10.627	27.2508	59.002	12.5747	6.12002	43.2105	11.5546	-13.9998	72.2692	-3.78561	43.5554	56.9663	-1.4025	22.4038	43.89	-2.85555	2.45086	111.456	2.74182	68.9629	123.094	-2.13523	95.1495	129.18	26.0967	74.6481	
5	0.0416667	140.67	54.04	85.1693	135.047	65.4242	64.7833	127.74	67.6793	39.7234	112.299	59.0233	19.6674	120.881	36.8127	15.6897	105.077	35.1541	-5.47847	93.7975	37.0752	-29.0152	109.561	16.228	15.4499	94.7755	17.8828	-6.91016	83.3247	20.5194	-30.1401	97.867	6.41115	20.4211	84.1203	4.18578	2.75333	73.6833	8.61583	-19.1498	87.8945	-8.27338	36.4106	79.8926	-4.74273	19.5345	68.6165	-9.16416	-7.30589	120.289	-6.51674	68.7412	130.77	-5.19909	95.3298	142.186	18.5554	74.0426	
6	0.05	157.341	40.2808	88.5395	159.229	54.1429	65.1086	155.996	53.2845	34.5922	143.326	44.3802	14.4073	150.842	17.6545	17.5187	143.002	19.1357	-8.07556	130.63	11.1598	-28.6031	141.966	0.521711	15.0074	131.418	0.42282	-8.86556	122.692	-1.55418	-35.4289	125.875	-14.2286	20.6871	116.915	-14.9194	0.206209	110.305	-14.6174	-23.3205	115.523	-21.113	38.4875	106.375	-23.3953	14.6462	102.782	-26.2641	-11.2683	143.635	-17.2601	74.6573	147.836	-14.4866	102.066	162.801	7.36831	79.7877	
7	0.0583333	173.99	32.6898	95.1511	178.053	42.2381	67.1604	179.261	38.9048	38.3416	172.218	25.9717	15.0597	184.109	3.45001	21.871	176.794	-1.60806	-4.86454	172.734	-8.52493	-28.8206	174.158	-17.2332	18.652	170.377	-19.0331	-6.7121	166.956	-27.1232	-36.0593	159.773	-31.9244	23.8136	155.827	-36.0527	1.27816	156.389	-34.9732	-22.0246	147.465	-38.5053	41.9161	145.118	-40.5098	19.412	145.71	-48.7795	-7.39975	169.675	-29.653	75.9232	167.931	-25.0068	109.505	185.833	-0.377528	89.1225	
8	0.0666667	185.168	27.6679	93.2833	190.491	41.2202	69.9152	195.462	36.0646	43.9566	194.408	23.0402	20.1599	209.873	-0.044802	27.896	211.261	-4.60425	2.86644	209.784	-14.4587	-17.9152	206.632	-20.9447	26.9262	208.034	-25.4818	-1.88456	211.187	-30.3232	-23.3383	196.061	-34.1767	33.6467	196.704	-39.977	9.75805	201.142	-45.5329	-18.9104	181.737	-46.8041	44.1134	183.916	-47.6795	20.6539	186.934	-57.9375	-1.02196	193.14	-34.8209	83.6017	186.548	-29.2025	111.47	200.641	-1.67096	95.8382	
9	0.075	183.193	38.5562	96.9419	187.38	50.3094	68.8311	195.944	48.2032	43.4829	200.428	31.5458	19.945	221.921	13.4323	31.2591	225.434	13.606	8.45209	229.612	1.33804	-17.8766	226.426	-2.42537	27.1446	230.557	-8.90444	1.81045	238.401	-12.4124	-19.6245	218.215	-21.9457	35.9029	223.166	-25.2789	12.5139	231.092	-28.7407	-13.7831	207.469	-39.1812	45.2855	212.746	-38.6302	23.0614	222.437	-40.9064	0.898862	207.621	-17.1187	86.0701	200.158	-18.8015	110.861	208.707	9.79556	98.5283	
10	0.0833333	172.58	45.1603	92.0266	171.879	62.4632	65.335	178.24	63.6096	38.3972	186.81	45.7793	17.4387	213.621	39.5641	31.7398	220.084	37.6123	2.29862	227.974	26.3701	-16.7483	224.603	20.3145	25.739	231.441	16.1248	3.7973	240.732	15.0679	-22.0054	225.662	0.670204	30.3268	231.495	-0.966403	10.0182	239.897	-1.18009	-15.1467	219.089	-18.58	42.5291	224.695	-15.4478	20.9839	236.344	-14.8697	-4.37622	211.389	2.63963	85.1753	204.401	0.427179	112.329	200.853	28.8037	95.1259	
11	0.0916667	149.862	48.2736	92.1867	146.525	60.2138	65.9712	152.555	64.9799	33.9056	162.831	52.3381	12.0766	189.899	56.042	23.2749	196.69	53.224	-2.14636	205.071	48.5177	-26.0188	204.609	42.0057	22.4684	213.32	39.2783	-4.10865	220.725	42.3444	-29.0878	214.349	22.8927	25.1207	220.057	20.8399	4.08107	226.714	24.912	-23.4057	213.796	7.48238	34.8909	220.975	6.63969	12.8026	230.011	7.76468	-8.92266	206.68	20.0272	75.4096	198.3	17.0478	105.531	184.154	45.93	86.1718	
12	0.1	128.516	44.2048	90.1259	120.162	51.7265	64.282	120.681	54.0928	37.18	131.711	46.3406	13.6386	160.276	56.727	15.6419	164.739	52.2618	-7.43298	169.158	51.4134	-28.2906	178.717	47.2594	11.3781	185.805	41.9686	-13.1155	190.664	44.0607	-36.5833	192.053	31.9559	17.5147	199.013	28.9925	-5.31992	200.07	34.6157	-29.3328	201.044	16.572	29.9567	202.06	17.4564	8.93136	208.432	20.9674	-14.3466	190.256	33.4346	71.8491	185.587	27.4392	100.083	163.162	50.3836	85.7693	
13	0.108333	114.297	31.9746	87.2971	97.8	35.3219	63.6572	98.4173	35.109	36.7702	105.264	27.2865	14.6333	135.098	39.2729	15.2	136.812	34.0804	-10.2094	141.001	30.8377	-36.5849	156.644	33.7275	11.4883	157.527	28.3594	-13.3197	161.454	26.9827	-43.4107	171.958	23.2982	12.3597	169.31	21.1769	-7.16501	174.655	20.1402	-30.2092	184.096	12.0571	29.4589	183.08	9.89824	4.07636	184.686	13.1236	-15.0337	170.659	32.6887	70.2187	170.791	31.4039	95.3413	141.765	46.6555	81.7819	
14	0.116667	97.4657	21.3539	89.8922	77.9079	19.6034	68.4372	79.0545	13.9346	40.6018	89.4054	2.36082	15.3155	111.587	17.0949	11.7858	113.51	5.22206	-9.95415	114.517	-0.422174	-30.9467	130.311	12.2779	9.5063	134.306	1.59091	-11.0848	133.77	-5.49113	-40.1135	152.145	3.8347	14.1912	150.494	-3.32676	-9.19135	149.392	-8.00791	-33.3233	164.118	-3.00093	29.98	165.964	-9.60076	9.31517	164.108	-10.7094	-17.0313	157.042	22.6893	66.4907	154.272	28.6877	94.7377	124.977	34.371	76.0994	
15	0.125	84.8333	18.4882	93.1609	67.4601	11.8057	73.5864	62.9051	2.62224	47.4579	70.8233	-12.5732	27.594	92.8824	-1.75346	17.807	89.7805	-17.5477	-2.32364	90.6419	-27.2754	-22.087	111.813	-10.6854	12.811	107.196	-24.5162	-7.32182	106.015	-35.1497	-29.0222	127.994	-16.5114	18.3306	131.727	-28.8182	1.86968	126.888	-39.3825	-23.1235	145.632	-22.79	33.8923	142.85	-33.8075	16.1426	139.742	-38.5643	-7.43492	145.275	11.0732	67.1404	147.191	19.8222	91.2405	113.945	26.3301	79.4158	
16	0.133333	83.5276	21.9478	97.0835	60.9097	20.547	75.9665	57.1023	4.95168	51.1687	57.8664	-14.0236	34.9352	78.3214	-9.49587	23.9554	69.3741	-24.5741	8.34999	69.9235	-42.5517	-11.1082	94.3513	-20.0668	22.4177	85.0204	-37.397	6.2686	82.0718	-55.1307	-13.7612	109.789	-30.2611	30.2283	102.389	-47.7994	10.6891	94.4313	-59.7886	-10.3986	126.156	-39.062	43.8084	113.964	-52.2917	24.9095	109.241	-59.9705	3.42837	134.147	-0.500949	69.5183	141.947	11.0918	94.6973	111.028	21.9402	80.8353	
17	0.141667	87.1964	36.1306	94.4082	67.1692	34.0756	74.6617	53.7325	24.7491	54.1341	50.056	3.48168	40.5395	71.865	-4.73214	27.7882	58.5356	-18.6979	14.156	50.069	-34.6077	-0.447645	81.623	-22.012	26.0261	66.687	-36.8718	11.0685	53.609	-49.2224	-6.72479	90.9178	-32.0737	33.1791	79.3473	-50.6454	17.8622	65.9682	-58.0225	2.12133	102.92	-42.5569	47.2041	89.9834	-55.1428	32.8574	85.6515	-65.4935	14.2202	128.281	-8.12035	70.9775	139.898	4.94844	96.6331	111.475	25.0777	79.6322	
